<svg xmlns="http://www.w3.org/2000/svg" viewBox="0 0 1600 978" width="1600" height="978" role="img" aria-labelledby="t d">
<title id="t">Container dependencies of the local stack</title>
<desc id="d">25 Docker Compose services in 5 startup tiers; each arrow points from a service to a service it depends on, as declared by depends_on in docker-compose.yml and docker-compose.jad.yml.</desc>
<defs>
<clipPath id="card"><rect width="1600" height="978" rx="14"/></clipPath>
<linearGradient id="bar" x1="0" y1="0" x2="1" y2="0"><stop offset="0" stop-color="#148F77"/><stop offset="1" stop-color="#2471A3"/></linearGradient>
<marker id="arr" viewBox="0 0 10 10" refX="9" refY="5" markerWidth="6" markerHeight="6" orient="auto-start-reverse"><path d="M0,0 L10,5 L0,10 z" fill="#9fb0c6"/></marker>
</defs>
<rect width="1600" height="978" rx="14" fill="#0b1220"/>
<rect width="1600" height="5" fill="url(#bar)" clip-path="url(#card)"/>
<text x="48" y="52" font-family="Inter, 'Segoe UI', -apple-system, system-ui, Roboto, sans-serif" font-size="12" font-weight="600" letter-spacing="2" fill="#9fb0c6">LOCAL DEVELOPMENT STACK · DOCKER COMPOSE</text>
<text x="48" y="88" font-family="Inter, 'Segoe UI', -apple-system, system-ui, Roboto, sans-serif" font-size="28" font-weight="700" fill="#e6edf6">Container Dependencies</text>
<text x="48" y="116" font-family="Inter, 'Segoe UI', -apple-system, system-ui, Roboto, sans-serif" font-size="15" fill="#9fb0c6">25 services in 5 startup tiers. Arrows point from a service to what it waits for (depends_on).</text>
<rect x="32" y="124" width="1536" height="92" rx="10" fill="#ffffff" fill-opacity="0.025"/>
<text x="56" y="166" font-family="Inter, 'Segoe UI', -apple-system, system-ui, Roboto, sans-serif" font-size="12" font-weight="700" letter-spacing="1.6" fill="#e6edf6">TIER 0</text>
<text x="56" y="184" font-family="Inter, 'Segoe UI', -apple-system, system-ui, Roboto, sans-serif" font-size="12" fill="#9fb0c6">Infrastructure</text>
<rect x="32" y="252" width="1536" height="92" rx="10" fill="#ffffff" fill-opacity="0.045"/>
<text x="56" y="294" font-family="Inter, 'Segoe UI', -apple-system, system-ui, Roboto, sans-serif" font-size="12" font-weight="700" letter-spacing="1.6" fill="#e6edf6">TIER 1</text>
<text x="56" y="312" font-family="Inter, 'Segoe UI', -apple-system, system-ui, Roboto, sans-serif" font-size="12" fill="#9fb0c6">Identity, UI, unseal, signing</text>
<rect x="32" y="380" width="1536" height="92" rx="10" fill="#ffffff" fill-opacity="0.025"/>
<text x="56" y="422" font-family="Inter, 'Segoe UI', -apple-system, system-ui, Roboto, sans-serif" font-size="12" font-weight="700" letter-spacing="1.6" fill="#e6edf6">TIER 2</text>
<text x="56" y="440" font-family="Inter, 'Segoe UI', -apple-system, system-ui, Roboto, sans-serif" font-size="12" fill="#9fb0c6">EDC-V core and identity services</text>
<rect x="32" y="508" width="1536" height="220" rx="10" fill="#ffffff" fill-opacity="0.045"/>
<text x="56" y="550" font-family="Inter, 'Segoe UI', -apple-system, system-ui, Roboto, sans-serif" font-size="12" font-weight="700" letter-spacing="1.6" fill="#e6edf6">TIER 3</text>
<text x="56" y="568" font-family="Inter, 'Segoe UI', -apple-system, system-ui, Roboto, sans-serif" font-size="12" fill="#9fb0c6">Data planes, proxy, provisioning, CFM</text>
<rect x="32" y="764" width="1536" height="92" rx="10" fill="#ffffff" fill-opacity="0.025"/>
<text x="56" y="806" font-family="Inter, 'Segoe UI', -apple-system, system-ui, Roboto, sans-serif" font-size="12" font-weight="700" letter-spacing="1.6" fill="#e6edf6">TIER 4</text>
<text x="56" y="824" font-family="Inter, 'Segoe UI', -apple-system, system-ui, Roboto, sans-serif" font-size="12" fill="#9fb0c6">Seed job</text>
<path d="M743.6,278 C743.6,234.0 658.4,234.0 658.4,192" fill="none" stroke="#4FD1B5" stroke-opacity="0.45" stroke-width="1.3" marker-end="url(#arr)"/>
<path d="M883.4,278 C883.4,234.0 1003.7,234.0 1003.7,192" fill="none" stroke="#6CB4E4" stroke-opacity="0.45" stroke-width="1.3" marker-end="url(#arr)"/>
<path d="M1015.4,278 C1015.4,234.0 1108.4,234.0 1108.4,192" fill="none" stroke="#6CB4E4" stroke-opacity="0.45" stroke-width="1.3" marker-end="url(#arr)"/>
<path d="M1139.6,278 C1139.6,234.0 1108.4,234.0 1108.4,192" fill="none" stroke="#6CB4E4" stroke-opacity="0.45" stroke-width="1.3" marker-end="url(#arr)"/>
<path d="M597.5,406 C597.5,362.0 883.4,362.0 883.4,320" fill="none" stroke="#6CB4E4" stroke-opacity="0.45" stroke-width="1.3" marker-end="url(#arr)"/>
<path d="M648.5,406 C648.5,298.0 1108.4,298.0 1108.4,192" fill="none" stroke="#6CB4E4" stroke-opacity="0.45" stroke-width="1.3" marker-end="url(#arr)"/>
<path d="M743.4,406 C743.4,362.0 883.4,362.0 883.4,320" fill="none" stroke="#6CB4E4" stroke-opacity="0.45" stroke-width="1.3" marker-end="url(#arr)"/>
<path d="M769.3,406 C769.3,298.0 1197.5,298.0 1197.5,192" fill="none" stroke="#6CB4E4" stroke-opacity="0.45" stroke-width="1.3" marker-end="url(#arr)"/>
<path d="M795.3,406 C795.3,298.0 1003.7,298.0 1003.7,192" fill="none" stroke="#6CB4E4" stroke-opacity="0.45" stroke-width="1.3" marker-end="url(#arr)"/>
<path d="M821.2,406 C821.2,298.0 1108.4,298.0 1108.4,192" fill="none" stroke="#6CB4E4" stroke-opacity="0.45" stroke-width="1.3" marker-end="url(#arr)"/>
<path d="M895.6,406 C895.6,362.0 883.4,362.0 883.4,320" fill="none" stroke="#6CB4E4" stroke-opacity="0.45" stroke-width="1.3" marker-end="url(#arr)"/>
<path d="M926.0,406 C926.0,298.0 1003.7,298.0 1003.7,192" fill="none" stroke="#6CB4E4" stroke-opacity="0.45" stroke-width="1.3" marker-end="url(#arr)"/>
<path d="M956.5,406 C956.5,298.0 1108.4,298.0 1108.4,192" fill="none" stroke="#6CB4E4" stroke-opacity="0.45" stroke-width="1.3" marker-end="url(#arr)"/>
<path d="M1039.2,406 C1039.2,362.0 883.4,362.0 883.4,320" fill="none" stroke="#6CB4E4" stroke-opacity="0.45" stroke-width="1.3" marker-end="url(#arr)"/>
<path d="M1073.6,406 C1073.6,298.0 1003.7,298.0 1003.7,192" fill="none" stroke="#6CB4E4" stroke-opacity="0.45" stroke-width="1.3" marker-end="url(#arr)"/>
<path d="M1108.0,406 C1108.0,298.0 1108.4,298.0 1108.4,192" fill="none" stroke="#6CB4E4" stroke-opacity="0.45" stroke-width="1.3" marker-end="url(#arr)"/>
<path d="M1208.7,406 C1208.7,362.0 883.4,362.0 883.4,320" fill="none" stroke="#6CB4E4" stroke-opacity="0.45" stroke-width="1.3" marker-end="url(#arr)"/>
<path d="M1257.1,406 C1257.1,298.0 1003.7,298.0 1003.7,192" fill="none" stroke="#6CB4E4" stroke-opacity="0.45" stroke-width="1.3" marker-end="url(#arr)"/>
<path d="M567.7,534 C567.7,490.0 782.3,490.0 782.3,448" fill="none" stroke="#6CB4E4" stroke-opacity="0.45" stroke-width="1.3" marker-end="url(#arr)"/>
<path d="M596.8,534 C596.8,362.0 1003.7,362.0 1003.7,192" fill="none" stroke="#6CB4E4" stroke-opacity="0.45" stroke-width="1.3" marker-end="url(#arr)"/>
<path d="M625.8,534 C625.8,426.0 1139.6,426.0 1139.6,320" fill="none" stroke="#6CB4E4" stroke-opacity="0.45" stroke-width="1.3" marker-end="url(#arr)"/>
<path d="M654.9,534 C654.9,362.0 1108.4,362.0 1108.4,192" fill="none" stroke="#6CB4E4" stroke-opacity="0.45" stroke-width="1.3" marker-end="url(#arr)"/>
<path d="M730.9,534 C730.9,490.0 782.3,490.0 782.3,448" fill="none" stroke="#6CB4E4" stroke-opacity="0.45" stroke-width="1.3" marker-end="url(#arr)"/>
<path d="M760.0,534 C760.0,362.0 1003.7,362.0 1003.7,192" fill="none" stroke="#6CB4E4" stroke-opacity="0.45" stroke-width="1.3" marker-end="url(#arr)"/>
<path d="M789.0,534 C789.0,426.0 1139.6,426.0 1139.6,320" fill="none" stroke="#6CB4E4" stroke-opacity="0.45" stroke-width="1.3" marker-end="url(#arr)"/>
<path d="M818.1,534 C818.1,362.0 1108.4,362.0 1108.4,192" fill="none" stroke="#6CB4E4" stroke-opacity="0.45" stroke-width="1.3" marker-end="url(#arr)"/>
<path d="M926.0,534 C926.0,490.0 782.3,490.0 782.3,448" fill="none" stroke="#6CB4E4" stroke-opacity="0.45" stroke-width="1.3" marker-end="url(#arr)"/>
<path d="M1065.8,534 C1065.8,490.0 782.3,490.0 782.3,448" fill="none" stroke="#6CB4E4" stroke-opacity="0.45" stroke-width="1.3" marker-end="url(#arr)"/>
<path d="M1186.9,534 C1186.9,490.0 782.3,490.0 782.3,448" fill="none" stroke="#6CB4E4" stroke-opacity="0.45" stroke-width="1.3" marker-end="url(#arr)"/>
<path d="M1229.0,534 C1229.0,426.0 883.4,426.0 883.4,320" fill="none" stroke="#6CB4E4" stroke-opacity="0.45" stroke-width="1.3" marker-end="url(#arr)"/>
<path d="M1271.2,534 C1271.2,362.0 1003.7,362.0 1003.7,192" fill="none" stroke="#6CB4E4" stroke-opacity="0.45" stroke-width="1.3" marker-end="url(#arr)"/>
<path d="M607.6,662 C607.6,490.0 883.4,490.0 883.4,320" fill="none" stroke="#6CB4E4" stroke-opacity="0.45" stroke-width="1.3" marker-end="url(#arr)"/>
<path d="M645.6,662 C645.6,554.0 1232.9,554.0 1232.9,448" fill="none" stroke="#6CB4E4" stroke-opacity="0.45" stroke-width="1.3" marker-end="url(#arr)"/>
<path d="M750.0,662 C750.0,554.0 782.3,554.0 782.3,448" fill="none" stroke="#6CB4E4" stroke-opacity="0.45" stroke-width="1.3" marker-end="url(#arr)"/>
<path d="M798.4,662 C798.4,554.0 1232.9,554.0 1232.9,448" fill="none" stroke="#6CB4E4" stroke-opacity="0.45" stroke-width="1.3" marker-end="url(#arr)"/>
<path d="M916.7,662 C916.7,554.0 926.0,554.0 926.0,448" fill="none" stroke="#6CB4E4" stroke-opacity="0.45" stroke-width="1.3" marker-end="url(#arr)"/>
<path d="M968.6,662 C968.6,554.0 1073.6,554.0 1073.6,448" fill="none" stroke="#6CB4E4" stroke-opacity="0.45" stroke-width="1.3" marker-end="url(#arr)"/>
<path d="M1020.5,662 C1020.5,554.0 1232.9,554.0 1232.9,448" fill="none" stroke="#6CB4E4" stroke-opacity="0.45" stroke-width="1.3" marker-end="url(#arr)"/>
<path d="M1128.8,662 C1128.8,554.0 782.3,554.0 782.3,448" fill="none" stroke="#6CB4E4" stroke-opacity="0.45" stroke-width="1.3" marker-end="url(#arr)"/>
<path d="M1167.2,662 C1167.2,554.0 926.0,554.0 926.0,448" fill="none" stroke="#6CB4E4" stroke-opacity="0.45" stroke-width="1.3" marker-end="url(#arr)"/>
<path d="M1205.6,662 C1205.6,554.0 1073.6,554.0 1073.6,448" fill="none" stroke="#6CB4E4" stroke-opacity="0.45" stroke-width="1.3" marker-end="url(#arr)"/>
<path d="M1244.0,662 C1244.0,554.0 1232.9,554.0 1232.9,448" fill="none" stroke="#6CB4E4" stroke-opacity="0.45" stroke-width="1.3" marker-end="url(#arr)"/>
<path d="M893.2,790 C893.2,618.0 782.3,618.0 782.3,448" fill="none" stroke="#6CB4E4" stroke-opacity="0.45" stroke-width="1.3" marker-end="url(#arr)"/>
<path d="M909.6,790 C909.6,618.0 926.0,618.0 926.0,448" fill="none" stroke="#6CB4E4" stroke-opacity="0.45" stroke-width="1.3" marker-end="url(#arr)"/>
<path d="M926.0,790 C926.0,618.0 1073.6,618.0 1073.6,448" fill="none" stroke="#6CB4E4" stroke-opacity="0.45" stroke-width="1.3" marker-end="url(#arr)"/>
<path d="M942.4,790 C942.4,682.0 1229.0,682.0 1229.0,576" fill="none" stroke="#6CB4E4" stroke-opacity="0.45" stroke-width="1.3" marker-end="url(#arr)"/>
<path d="M958.8,790 C958.8,618.0 1232.9,618.0 1232.9,448" fill="none" stroke="#6CB4E4" stroke-opacity="0.45" stroke-width="1.3" marker-end="url(#arr)"/>
<rect x="620.9" y="150" width="75.0" height="40" rx="8" fill="#148F77" fill-opacity="0.30" stroke="#4FD1B5" stroke-width="1.2"/>
<text x="658.4" y="174.5" font-family="ui-monospace, SFMono-Regular, Menlo, Consolas, monospace" font-size="13" fill="#e6edf6" text-anchor="middle">neo4j</text>
<rect x="713.9" y="150" width="114.0" height="40" rx="8" fill="#148F77" fill-opacity="0.30" stroke="#4FD1B5" stroke-width="1.2" stroke-dasharray="5 4"/>
<text x="770.9" y="174.5" font-family="ui-monospace, SFMono-Regular, Menlo, Consolas, monospace" font-size="13" fill="#e6edf6" text-anchor="middle">neo4j-spe2</text>
<text x="770.9" y="205" font-family="Inter, 'Segoe UI', -apple-system, system-ui, Roboto, sans-serif" font-size="11" fill="#9fb0c6" text-anchor="middle">profile: federated</text>
<rect x="845.9" y="150" width="90.6" height="40" rx="8" fill="#2471A3" fill-opacity="0.30" stroke="#6CB4E4" stroke-width="1.2"/>
<text x="891.2" y="174.5" font-family="ui-monospace, SFMono-Regular, Menlo, Consolas, monospace" font-size="13" fill="#e6edf6" text-anchor="middle">traefik</text>
<rect x="954.5" y="150" width="98.4" height="40" rx="8" fill="#2471A3" fill-opacity="0.30" stroke="#6CB4E4" stroke-width="1.2"/>
<text x="1003.7" y="174.5" font-family="ui-monospace, SFMono-Regular, Menlo, Consolas, monospace" font-size="13" fill="#e6edf6" text-anchor="middle">postgres</text>
<rect x="1070.9" y="150" width="75.0" height="40" rx="8" fill="#2471A3" fill-opacity="0.30" stroke="#6CB4E4" stroke-width="1.2"/>
<text x="1108.4" y="174.5" font-family="ui-monospace, SFMono-Regular, Menlo, Consolas, monospace" font-size="13" fill="#e6edf6" text-anchor="middle">vault</text>
<rect x="1163.9" y="150" width="67.2" height="40" rx="8" fill="#2471A3" fill-opacity="0.30" stroke="#6CB4E4" stroke-width="1.2"/>
<text x="1197.5" y="174.5" font-family="ui-monospace, SFMono-Regular, Menlo, Consolas, monospace" font-size="13" fill="#e6edf6" text-anchor="middle">nats</text>
<rect x="671.0" y="278" width="145.2" height="40" rx="8" fill="#148F77" fill-opacity="0.30" stroke="#4FD1B5" stroke-width="1.2"/>
<text x="743.6" y="302.5" font-family="ui-monospace, SFMono-Regular, Menlo, Consolas, monospace" font-size="13" fill="#e6edf6" text-anchor="middle">graph-explorer</text>
<rect x="834.2" y="278" width="98.4" height="40" rx="8" fill="#2471A3" fill-opacity="0.30" stroke="#6CB4E4" stroke-width="1.2"/>
<text x="883.4" y="302.5" font-family="ui-monospace, SFMono-Regular, Menlo, Consolas, monospace" font-size="13" fill="#e6edf6" text-anchor="middle">keycloak</text>
<rect x="950.6" y="278" width="129.6" height="40" rx="8" fill="#2471A3" fill-opacity="0.30" stroke="#6CB4E4" stroke-width="1.2"/>
<text x="1015.4" y="302.5" font-family="ui-monospace, SFMono-Regular, Menlo, Consolas, monospace" font-size="13" fill="#e6edf6" text-anchor="middle">vault-unseal</text>
<rect x="1098.2" y="278" width="82.8" height="40" rx="8" fill="#2471A3" fill-opacity="0.30" stroke="#6CB4E4" stroke-width="1.2"/>
<text x="1139.6" y="302.5" font-family="ui-monospace, SFMono-Regular, Menlo, Consolas, monospace" font-size="13" fill="#e6edf6" text-anchor="middle">siglet</text>
<rect x="546.5" y="406" width="153.0" height="40" rx="8" fill="#2471A3" fill-opacity="0.30" stroke="#6CB4E4" stroke-width="1.2"/>
<text x="623.0" y="430.5" font-family="ui-monospace, SFMono-Regular, Menlo, Consolas, monospace" font-size="13" fill="#e6edf6" text-anchor="middle">vault-bootstrap</text>
<rect x="717.5" y="406" width="129.6" height="40" rx="8" fill="#2471A3" fill-opacity="0.30" stroke="#6CB4E4" stroke-width="1.2"/>
<text x="782.3" y="430.5" font-family="ui-monospace, SFMono-Regular, Menlo, Consolas, monospace" font-size="13" fill="#e6edf6" text-anchor="middle">controlplane</text>
<rect x="865.1" y="406" width="121.8" height="40" rx="8" fill="#2471A3" fill-opacity="0.30" stroke="#6CB4E4" stroke-width="1.2"/>
<text x="926.0" y="430.5" font-family="ui-monospace, SFMono-Regular, Menlo, Consolas, monospace" font-size="13" fill="#e6edf6" text-anchor="middle">identityhub</text>
<rect x="1004.9" y="406" width="137.4" height="40" rx="8" fill="#2471A3" fill-opacity="0.30" stroke="#6CB4E4" stroke-width="1.2"/>
<text x="1073.6" y="430.5" font-family="ui-monospace, SFMono-Regular, Menlo, Consolas, monospace" font-size="13" fill="#e6edf6" text-anchor="middle">issuerservice</text>
<rect x="1160.3" y="406" width="145.2" height="40" rx="8" fill="#2471A3" fill-opacity="0.30" stroke="#6CB4E4" stroke-width="1.2"/>
<text x="1232.9" y="430.5" font-family="ui-monospace, SFMono-Regular, Menlo, Consolas, monospace" font-size="13" fill="#e6edf6" text-anchor="middle">tenant-manager</text>
<rect x="538.7" y="534" width="145.2" height="40" rx="8" fill="#2471A3" fill-opacity="0.30" stroke="#6CB4E4" stroke-width="1.2"/>
<text x="611.3" y="558.5" font-family="ui-monospace, SFMono-Regular, Menlo, Consolas, monospace" font-size="13" fill="#e6edf6" text-anchor="middle">dataplane-fhir</text>
<rect x="701.9" y="534" width="145.2" height="40" rx="8" fill="#2471A3" fill-opacity="0.30" stroke="#6CB4E4" stroke-width="1.2"/>
<text x="774.5" y="558.5" font-family="ui-monospace, SFMono-Regular, Menlo, Consolas, monospace" font-size="13" fill="#e6edf6" text-anchor="middle">dataplane-omop</text>
<rect x="865.1" y="534" width="121.8" height="40" rx="8" fill="#2471A3" fill-opacity="0.30" stroke="#6CB4E4" stroke-width="1.2"/>
<text x="926.0" y="558.5" font-family="ui-monospace, SFMono-Regular, Menlo, Consolas, monospace" font-size="13" fill="#e6edf6" text-anchor="middle">neo4j-proxy</text>
<rect x="1004.9" y="534" width="121.8" height="40" rx="8" fill="#2471A3" fill-opacity="0.30" stroke="#6CB4E4" stroke-width="1.2"/>
<text x="1065.8" y="558.5" font-family="ui-monospace, SFMono-Regular, Menlo, Consolas, monospace" font-size="13" fill="#e6edf6" text-anchor="middle">cfm-cp-shim</text>
<rect x="1144.7" y="534" width="168.6" height="40" rx="8" fill="#2471A3" fill-opacity="0.30" stroke="#6CB4E4" stroke-width="1.2"/>
<text x="1229.0" y="558.5" font-family="ui-monospace, SFMono-Regular, Menlo, Consolas, monospace" font-size="13" fill="#e6edf6" text-anchor="middle">provision-manager</text>
<rect x="569.6" y="662" width="114.0" height="40" rx="8" fill="#2471A3" fill-opacity="0.30" stroke="#6CB4E4" stroke-width="1.2"/>
<text x="626.6" y="686.5" font-family="ui-monospace, SFMono-Regular, Menlo, Consolas, monospace" font-size="13" fill="#e6edf6" text-anchor="middle">cfm-agents</text>
<rect x="701.6" y="662" width="145.2" height="40" rx="8" fill="#2471A3" fill-opacity="0.30" stroke="#6CB4E4" stroke-width="1.2"/>
<text x="774.2" y="686.5" font-family="ui-monospace, SFMono-Regular, Menlo, Consolas, monospace" font-size="13" fill="#e6edf6" text-anchor="middle">cfm-edcv-agent</text>
<rect x="864.8" y="662" width="207.6" height="40" rx="8" fill="#2471A3" fill-opacity="0.30" stroke="#6CB4E4" stroke-width="1.2"/>
<text x="968.6" y="686.5" font-family="ui-monospace, SFMono-Regular, Menlo, Consolas, monospace" font-size="13" fill="#e6edf6" text-anchor="middle">cfm-registration-agent</text>
<rect x="1090.4" y="662" width="192.0" height="40" rx="8" fill="#2471A3" fill-opacity="0.30" stroke="#6CB4E4" stroke-width="1.2"/>
<text x="1186.4" y="686.5" font-family="ui-monospace, SFMono-Regular, Menlo, Consolas, monospace" font-size="13" fill="#e6edf6" text-anchor="middle">cfm-onboarding-agent</text>
<rect x="876.8" y="790" width="98.4" height="40" rx="8" fill="#2471A3" fill-opacity="0.30" stroke="#6CB4E4" stroke-width="1.2" stroke-dasharray="5 4"/>
<text x="926.0" y="814.5" font-family="ui-monospace, SFMono-Regular, Menlo, Consolas, monospace" font-size="13" fill="#e6edf6" text-anchor="middle">jad-seed</text>
<text x="926.0" y="845" font-family="Inter, 'Segoe UI', -apple-system, system-ui, Roboto, sans-serif" font-size="11" fill="#9fb0c6" text-anchor="middle">profile: seed</text>
<rect x="48" y="936" width="18" height="14" rx="4" fill="#148F77" fill-opacity="0.30" stroke="#4FD1B5"/>
<text x="74" y="948" font-family="Inter, 'Segoe UI', -apple-system, system-ui, Roboto, sans-serif" font-size="12.5" fill="#9fb0c6">Minimal stack · docker-compose.yml</text>
<rect x="352" y="936" width="18" height="14" rx="4" fill="#2471A3" fill-opacity="0.30" stroke="#6CB4E4"/>
<text x="378" y="948" font-family="Inter, 'Segoe UI', -apple-system, system-ui, Roboto, sans-serif" font-size="12.5" fill="#9fb0c6">JAD stack · docker-compose.jad.yml</text>
<rect x="656" y="936" width="18" height="14" rx="4" fill="none" stroke="#9fb0c6" stroke-dasharray="4 3"/>
<text x="682" y="948" font-family="Inter, 'Segoe UI', -apple-system, system-ui, Roboto, sans-serif" font-size="12.5" fill="#9fb0c6">starts only with its compose profile</text>
<text x="1552" y="948" font-family="Inter, 'Segoe UI', -apple-system, system-ui, Roboto, sans-serif" font-size="12.5" fill="#64748b" text-anchor="end">Generated from depends_on in the compose files</text>
</svg>
